<svg width="19" height="19" viewBox="0 0 19 19" fill="none" xmlns="http://www.w3.org/2000/svg">
<path d="M2.48292 4.697C3.69132 4.697 4.67092 3.7174 4.67092 2.509C4.67092 1.3006 3.69132 0.320999 2.48292 0.320999C1.27452 0.320999 0.294922 1.3006 0.294922 2.509C0.294922 3.7174 1.27452 4.697 2.48292 4.697Z" fill="#0A66C2"/>
<path d="M6.73673 6.355V18.494H10.5057V12.491C10.5057 10.907 10.8037 9.373 12.7677 9.373C14.7047 9.373 14.7287 11.184 14.7287 12.591V18.495H18.4997V11.838C18.4997 8.568 17.7957 6.055 13.9737 6.055C12.1387 6.055 10.9087 7.062 10.4057 8.015H10.3547V6.355H6.73673V6.355ZM0.594727 6.355H4.36973V18.494H0.594727V6.355Z" fill="#0A66C2"/>
</svg>
